<svg id="레이어_1" data-name="레이어 1" xmlns="http://www.w3.org/2000/svg" viewBox="0 0 116.41 39.15"><defs><style>.cls-1{fill:#4080c1;}</style></defs><path class="cls-1" d="M106.68,275.35h5.68a3.45,3.45,0,0,1,2.74,1,2.69,2.69,0,0,1-.68,4.34h0a2.52,2.52,0,0,1,1.39,1.14,3.24,3.24,0,0,1,.37,1.64,3.32,3.32,0,0,1-.28,1.34,3.24,3.24,0,0,1-.71,1.06,3,3,0,0,1-1.16.76,7.89,7.89,0,0,1-2.38.28h-5Zm2.28,4.56h2.94a1.92,1.92,0,0,0,1.16-.31,1.14,1.14,0,0,0,.49-1,1.1,1.1,0,0,0-.46-1,2.31,2.31,0,0,0-1.26-.27H109Zm0,5.06H112a1.88,1.88,0,0,0,1.33-.41,1.73,1.73,0,0,0,.47-1.32,1.27,1.27,0,0,0-.53-1.08,1.94,1.94,0,0,0-1.14-.31H109Z" transform="translate(-86.05 -260.82)"/><path class="cls-1" d="M150,275.35h5.68a3.44,3.44,0,0,1,2.74,1,3.08,3.08,0,0,1,.18,3.67,2.71,2.71,0,0,1-.86.67h0a2.49,2.49,0,0,1,1.39,1.14,3.24,3.24,0,0,1,.37,1.64,3.32,3.32,0,0,1-.28,1.34,3.37,3.37,0,0,1-1.86,1.82,8,8,0,0,1-2.39.28h-5Zm2.28,4.56h2.94a1.92,1.92,0,0,0,1.16-.31,1.14,1.14,0,0,0,.49-1,1.1,1.1,0,0,0-.46-1,2.31,2.31,0,0,0-1.26-.27h-2.87Zm0,5.06h3.05a1.88,1.88,0,0,0,1.33-.41,1.69,1.69,0,0,0,.47-1.32,1.25,1.25,0,0,0-.53-1.08,1.94,1.94,0,0,0-1.14-.31h-3.18Z" transform="translate(-86.05 -260.82)"/><path class="cls-1" d="M161.92,275.35h5.75a3.21,3.21,0,0,1,3.52,3.29,3.13,3.13,0,0,1-.46,1.71,2.36,2.36,0,0,1-1.29,1.06,2.06,2.06,0,0,1,1.06.81,4.47,4.47,0,0,1,.38,2.15,13.86,13.86,0,0,0,.06,1.7.72.72,0,0,0,.46.59v.3h-2.64a4.74,4.74,0,0,1-.17-.94,13.48,13.48,0,0,1-.06-1.4,3.39,3.39,0,0,0-.27-1.7c-.23-.34-.75-.51-1.55-.51h-2.46V287h-2.33Zm5.1,5.14a2.1,2.1,0,0,0,1.36-.37,1.59,1.59,0,0,0,.44-1.25,1.63,1.63,0,0,0-.29-1,1.59,1.59,0,0,0-1.32-.52h-3v3.14Z" transform="translate(-86.05 -260.82)"/><path class="cls-1" d="M175.54,276.06a5.78,5.78,0,0,1,6.5,0q2.15,1.56,2.15,5.09T182,286.22a5.69,5.69,0,0,1-6.5,0q-2.13-1.56-2.13-5.07t2.13-5.09m1.26,8.29a2.72,2.72,0,0,0,2,.8,2.69,2.69,0,0,0,2-.8,4.31,4.31,0,0,0,1.05-3.2,4.38,4.38,0,0,0-1.05-3.22,2.65,2.65,0,0,0-2-.8,2.68,2.68,0,0,0-2,.8,4.42,4.42,0,0,0-1,3.22,4.35,4.35,0,0,0,1,3.2" transform="translate(-86.05 -260.82)"/><path class="cls-1" d="M118.48,277.64h1.11a.7.7,0,0,1,.54.2.55.55,0,0,1,.13.38.53.53,0,0,1-.1.34.63.63,0,0,1-.17.13h0a.53.53,0,0,1,.28.22.79.79,0,0,1,.07.32.58.58,0,0,1-.06.26.52.52,0,0,1-.14.21.62.62,0,0,1-.22.15,1.45,1.45,0,0,1-.47,0h-1Zm.45.89h.57a.39.39,0,0,0,.23-.06.23.23,0,0,0,.09-.19.23.23,0,0,0-.09-.2.48.48,0,0,0-.24-.05h-.56Zm0,1h.59a.37.37,0,0,0,.26-.08.35.35,0,0,0,.1-.26.25.25,0,0,0-.11-.21.38.38,0,0,0-.22-.06h-.62Z" transform="translate(-86.05 -260.82)"/><path class="cls-1" d="M122.21,279.42a.75.75,0,0,1-.29.42.74.74,0,0,1-.42.12.81.81,0,0,1-.57-.2,1,1,0,0,1-.23-.72,1,1,0,0,1,.12-.5.68.68,0,0,1,.65-.35.74.74,0,0,1,.5.17,1,1,0,0,1,.26.75v.08h-1.1v0a.57.57,0,0,0,.07.24.32.32,0,0,0,.3.15.33.33,0,0,0,.17,0,.3.3,0,0,0,.11-.14Zm-.42-.52a.38.38,0,0,0-.12-.27.29.29,0,0,0-.2-.07.32.32,0,0,0-.23.09.44.44,0,0,0-.09.25Z" transform="translate(-86.05 -260.82)"/><path class="cls-1" d="M123.66,277.64h1.11a.69.69,0,0,1,.53.2.56.56,0,0,1,.14.38.53.53,0,0,1-.11.34.56.56,0,0,1-.16.13h0a.54.54,0,0,1,.27.22.66.66,0,0,1,.07.32.75.75,0,0,1-.05.26.64.64,0,0,1-.14.21.65.65,0,0,1-.23.15,1.39,1.39,0,0,1-.46,0h-1Zm.44.89h.58a.36.36,0,0,0,.22-.06.22.22,0,0,0,.1-.19.23.23,0,0,0-.09-.2.52.52,0,0,0-.25-.05h-.56Zm0,1h.6a.4.4,0,0,0,.26-.08.34.34,0,0,0,.09-.26.25.25,0,0,0-.11-.21.36.36,0,0,0-.22-.06h-.62Z" transform="translate(-86.05 -260.82)"/><path class="cls-1" d="M126,278.24h.41v.29h0a.83.83,0,0,1,.17-.24.4.4,0,0,1,.3-.1h.08v.45h-.12a.4.4,0,0,0-.34.13.41.41,0,0,0-.07.27v.86H126Z" transform="translate(-86.05 -260.82)"/><path class="cls-1" d="M128.63,279.74a.76.76,0,0,1-.56.22.79.79,0,0,1-.58-.22.9.9,0,0,1-.25-.66,1,1,0,0,1,.25-.68.83.83,0,0,1,.58-.21.79.79,0,0,1,.56.21,1,1,0,0,1,.25.68.9.9,0,0,1-.25.66m-.26-1a.32.32,0,0,0-.3-.18.34.34,0,0,0-.32.18.77.77,0,0,0-.06.34.81.81,0,0,0,.06.33.33.33,0,0,0,.32.17.31.31,0,0,0,.3-.17.67.67,0,0,0,.07-.33.66.66,0,0,0-.07-.34" transform="translate(-86.05 -260.82)"/><path class="cls-1" d="M129.77,278.22H130v.31h-.27v1c0,.05,0,.09,0,.1a.24.24,0,0,0,.15,0H130V280h-.25a.51.51,0,0,1-.37-.1.38.38,0,0,1-.08-.26v-1.07h-.22v-.31h.22v-.46h.43Z" transform="translate(-86.05 -260.82)"/><path class="cls-1" d="M132,279.9h-.43v-1a.41.41,0,0,0,0-.21.24.24,0,0,0-.24-.12.3.3,0,0,0-.24.1.39.39,0,0,0-.1.29v.95h-.43v-2.26H131v.81h0a.42.42,0,0,1,.17-.18.69.69,0,0,1,.32-.08.59.59,0,0,1,.4.14.54.54,0,0,1,.16.42Z" transform="translate(-86.05 -260.82)"/><path class="cls-1" d="M133.91,279.42a.72.72,0,0,1-.3.42.69.69,0,0,1-.41.12.81.81,0,0,1-.57-.2,1,1,0,0,1-.23-.72,1,1,0,0,1,.12-.5.68.68,0,0,1,.65-.35.76.76,0,0,1,.5.17,1,1,0,0,1,.25.75v.08h-1.09v0a.57.57,0,0,0,.07.24.32.32,0,0,0,.3.15.33.33,0,0,0,.17,0,.38.38,0,0,0,.11-.14Zm-.42-.52a.38.38,0,0,0-.12-.27.31.31,0,0,0-.2-.07.3.3,0,0,0-.23.09.52.52,0,0,0-.1.25Z" transform="translate(-86.05 -260.82)"/><path class="cls-1" d="M134.35,278.24h.41v.29h0a.83.83,0,0,1,.16-.24.42.42,0,0,1,.3-.1h.08v.45h-.12a.4.4,0,0,0-.34.13.48.48,0,0,0-.07.27v.86h-.43Z" transform="translate(-86.05 -260.82)"/><path class="cls-1" d="M118.48,281.19h1.11a.7.7,0,0,1,.54.2.55.55,0,0,1,.13.38.53.53,0,0,1-.1.34.63.63,0,0,1-.17.13h0a.48.48,0,0,1,.28.22.76.76,0,0,1,.07.32.58.58,0,0,1-.06.26.6.6,0,0,1-.14.21.62.62,0,0,1-.22.15,1.45,1.45,0,0,1-.47.05h-1Zm.45.89h.57a.39.39,0,0,0,.23-.06.23.23,0,0,0,.09-.19.23.23,0,0,0-.09-.2.48.48,0,0,0-.24-.05h-.56Zm0,1h.59a.37.37,0,0,0,.26-.08.36.36,0,0,0,.1-.26.25.25,0,0,0-.11-.21.38.38,0,0,0-.22-.06h-.62Z" transform="translate(-86.05 -260.82)"/><path class="cls-1" d="M122.21,283a.75.75,0,0,1-.29.42.74.74,0,0,1-.42.12.81.81,0,0,1-.57-.2,1,1,0,0,1-.23-.72,1.07,1.07,0,0,1,.12-.51.69.69,0,0,1,.65-.34.74.74,0,0,1,.5.17,1,1,0,0,1,.26.75v.08h-1.1a.63.63,0,0,0,.07.25.32.32,0,0,0,.3.15.26.26,0,0,0,.17,0,.28.28,0,0,0,.11-.13Zm-.42-.52a.38.38,0,0,0-.12-.27.3.3,0,0,0-.2-.08.33.33,0,0,0-.23.1.44.44,0,0,0-.09.25Z" transform="translate(-86.05 -260.82)"/><path class="cls-1" d="M124,283.45h-.48l.8-2.26h.53l.79,2.26h-.5L125,283h-.84Zm.29-.85h.57l-.28-.9h0Z" transform="translate(-86.05 -260.82)"/><path class="cls-1" d="M128,282.24H129v1.2h-.42v-.28a.28.28,0,0,1-.17.23.84.84,0,0,1-.47.12.93.93,0,0,1-.71-.3,1.24,1.24,0,0,1-.3-.88,1.32,1.32,0,0,1,.25-.83,1.14,1.14,0,0,1,1.56-.1.76.76,0,0,1,.24.5h-.46a.22.22,0,0,0,0-.1.47.47,0,0,0-.09-.12l-.15-.11a.57.57,0,0,0-.22,0,.55.55,0,0,0-.44.19.89.89,0,0,0-.2.62.81.81,0,0,0,.21.61.62.62,0,0,0,.44.15.64.64,0,0,0,.31-.07.42.42,0,0,0,.23-.41H128Z" transform="translate(-86.05 -260.82)"/><path class="cls-1" d="M130.72,283.29a.75.75,0,0,1-.56.22.77.77,0,0,1-.57-.22.87.87,0,0,1-.25-.67.88.88,0,0,1,.25-.67.8.8,0,0,1,.57-.21.78.78,0,0,1,.56.21.88.88,0,0,1,.25.67.87.87,0,0,1-.25.67m-.26-1a.32.32,0,0,0-.3-.17.33.33,0,0,0-.31.17.86.86,0,0,0,0,.68.33.33,0,0,0,.31.17.32.32,0,0,0,.3-.17.86.86,0,0,0,0-.68" transform="translate(-86.05 -260.82)"/><path class="cls-1" d="M132.69,283.29a.75.75,0,0,1-.56.22.77.77,0,0,1-.57-.22.87.87,0,0,1-.25-.67.88.88,0,0,1,.25-.67.8.8,0,0,1,.57-.21.78.78,0,0,1,.56.21.88.88,0,0,1,.25.67.87.87,0,0,1-.25.67m-.26-1a.32.32,0,0,0-.3-.17.33.33,0,0,0-.31.17.86.86,0,0,0,0,.68.33.33,0,0,0,.31.17.32.32,0,0,0,.3-.17.86.86,0,0,0,0-.68" transform="translate(-86.05 -260.82)"/><path class="cls-1" d="M134.82,283.45h-.41v-.2a.53.53,0,0,1-.22.2.55.55,0,0,1-.26.06.59.59,0,0,1-.53-.28,1.11,1.11,0,0,1-.16-.63,1,1,0,0,1,.2-.65.63.63,0,0,1,.48-.21.52.52,0,0,1,.31.09.52.52,0,0,1,.16.17h0v-.81h.42Zm-1.07-.49a.31.31,0,0,0,.29.18.34.34,0,0,0,.29-.15.56.56,0,0,0,.09-.33.66.66,0,0,0-.08-.37.3.3,0,0,0-.29-.17.32.32,0,0,0-.29.16.74.74,0,0,0-.08.36.79.79,0,0,0,.07.32" transform="translate(-86.05 -260.82)"/><path class="cls-1" d="M136.72,282h0a.64.64,0,0,1,.17-.19.53.53,0,0,1,.32-.09.59.59,0,0,1,.47.21.94.94,0,0,1,.21.65,1.11,1.11,0,0,1-.17.63.57.57,0,0,1-.52.28.47.47,0,0,1-.32-.1.56.56,0,0,1-.14-.16h0v.62h-.43v-2.09h.41Zm.09,1a.33.33,0,0,0,.29.15.3.3,0,0,0,.28-.18.66.66,0,0,0,.08-.32.64.64,0,0,0-.09-.36.29.29,0,0,0-.28-.16.3.3,0,0,0-.29.17.75.75,0,0,0-.08.37.56.56,0,0,0,.09.33" transform="translate(-86.05 -260.82)"/><path class="cls-1" d="M139.63,283.13a.49.49,0,0,0,0,.2.12.12,0,0,0,.06.06v.06h-.45a.23.23,0,0,1,0-.09.28.28,0,0,1,0-.1.81.81,0,0,1-.2.16.63.63,0,0,1-.33.09.49.49,0,0,1-.34-.12.45.45,0,0,1-.16-.38.48.48,0,0,1,.14-.37.52.52,0,0,1,.33-.16l.39-.06a.23.23,0,0,0,.1,0,.09.09,0,0,0,.05-.09.17.17,0,0,0-.1-.17.42.42,0,0,0-.18,0,.27.27,0,0,0-.21.08.25.25,0,0,0-.05.16h-.42a.61.61,0,0,1,.26-.49.89.89,0,0,1,.47-.1,1,1,0,0,1,.41.08.43.43,0,0,1,.24.41Zm-.42-.49-.09.05-.2,0a.57.57,0,0,0-.2.07.21.21,0,0,0-.09.19.19.19,0,0,0,.07.16.18.18,0,0,0,.13,0,.39.39,0,0,0,.26-.09.29.29,0,0,0,.12-.24Z" transform="translate(-86.05 -260.82)"/><path class="cls-1" d="M140.14,281.78h.41v.3h0a.71.71,0,0,1,.17-.24.4.4,0,0,1,.3-.1h.08v.46H141a.4.4,0,0,0-.34.13.41.41,0,0,0-.07.27v.86h-.43Z" transform="translate(-86.05 -260.82)"/><path class="cls-1" d="M142,281.76h.27v.32H142v1s0,.09,0,.1a.24.24,0,0,0,.15,0h.09v.33H142a.56.56,0,0,1-.37-.1.4.4,0,0,1-.08-.27v-1.06h-.22v-.32h.22v-.45H142Z" transform="translate(-86.05 -260.82)"/><path class="cls-1" d="M144.18,283.45h-.43v-1a.41.41,0,0,0,0-.21.24.24,0,0,0-.23-.12.32.32,0,0,0-.25.1.42.42,0,0,0-.1.29v.95h-.42v-1.67h.41V282h0a1,1,0,0,1,.15-.19.57.57,0,0,1,.34-.1.62.62,0,0,1,.41.14.54.54,0,0,1,.16.42Z" transform="translate(-86.05 -260.82)"/><path class="cls-1" d="M146.1,283a.72.72,0,0,1-.3.42.69.69,0,0,1-.41.12.81.81,0,0,1-.57-.2,1,1,0,0,1-.23-.72,1.07,1.07,0,0,1,.12-.51.69.69,0,0,1,.65-.34.76.76,0,0,1,.5.17,1,1,0,0,1,.25.75v.08H145a.63.63,0,0,0,.07.25.32.32,0,0,0,.3.15.26.26,0,0,0,.17,0,.35.35,0,0,0,.11-.13Zm-.42-.52a.38.38,0,0,0-.12-.27.32.32,0,0,0-.2-.08.31.31,0,0,0-.23.1.52.52,0,0,0-.1.25Z" transform="translate(-86.05 -260.82)"/><path class="cls-1" d="M146.54,281.78H147v.3h0a.71.71,0,0,1,.16-.24.42.42,0,0,1,.3-.1h.08v.46h-.12a.4.4,0,0,0-.34.13.48.48,0,0,0-.07.27v.86h-.43Z" transform="translate(-86.05 -260.82)"/><polyline class="cls-1" points="46.06 0 0 9.43 3.17 19.26 46.06 0"/><polygon class="cls-1" points="9.09 36.36 10.22 7.79 0 9.25 9.09 36.36"/><polyline class="cls-1" points="106.5 4.19 107.41 31.51 116.41 29.67 106.5 4.19"/><polygon class="cls-1" points="69.84 39.15 115.9 29.72 112.73 19.89 69.84 39.15"/></svg>