<svg id="레이어_1" data-name="레이어 1" xmlns="http://www.w3.org/2000/svg" viewBox="0 0 221.68 53.15"><defs><style>.cls-1{fill:#231815;}</style></defs><path class="cls-1" d="M320.17,222.33a11.72,11.72,0,0,1,9.33,4.07,13.48,13.48,0,0,1,3.18,9,12.31,12.31,0,0,1-1.52,6.14,11.62,11.62,0,0,1-4.24,4.49,14,14,0,0,1,5.69,4.9,13.52,13.52,0,0,1,2.32,7.87,14.54,14.54,0,0,1-3.44,9.8,12.91,12.91,0,0,1-10.33,4.48H305.47a5.87,5.87,0,0,1-4.77-2.07,7,7,0,0,1-1.52-4.55V229a7.11,7.11,0,0,1,1.52-4.63,5.87,5.87,0,0,1,4.77-2.07Zm6.15,19.33a10,10,0,0,0,0-12.63,8.09,8.09,0,0,0-6.55-2.83H306.2a2.76,2.76,0,0,0-2.25,1,3.28,3.28,0,0,0-.67,2.14v15.26h16.49A8.14,8.14,0,0,0,326.32,241.66ZM328.38,266a10.73,10.73,0,0,0,2.45-7.17,10.62,10.62,0,0,0-2.59-7.25,9.47,9.47,0,0,0-7.48-3.25H303.28v17.88a3.16,3.16,0,0,0,.67,2.07,2.74,2.74,0,0,0,2.25,1h14.89A9,9,0,0,0,328.38,266Z" transform="translate(-299.18 -221.16)"/><path class="cls-1" d="M376.91,247.66c0,1.29-.55,1.94-1.65,1.94H345.07c-1.06,0-1.59-.65-1.59-1.94s.48-1.86,1.59-1.86h30.19Q376.91,245.8,376.91,247.66Z" transform="translate(-299.18 -221.16)"/><path class="cls-1" d="M408.76,222.33a11.74,11.74,0,0,1,9.34,4.07,13.47,13.47,0,0,1,3.17,9,12.21,12.21,0,0,1-1.52,6.14,11.55,11.55,0,0,1-4.24,4.49,14.11,14.11,0,0,1,5.7,4.9,13.59,13.59,0,0,1,2.32,7.87,14.5,14.5,0,0,1-3.45,9.8,12.9,12.9,0,0,1-10.33,4.48H394.06a5.84,5.84,0,0,1-4.76-2.07,6.93,6.93,0,0,1-1.53-4.55V229a7.06,7.06,0,0,1,1.53-4.63,5.84,5.84,0,0,1,4.76-2.07Zm6.16,19.33a10,10,0,0,0,0-12.63,8.11,8.11,0,0,0-6.56-2.83H394.79a2.76,2.76,0,0,0-2.25,1,3.33,3.33,0,0,0-.66,2.14v15.26h16.48A8.16,8.16,0,0,0,414.92,241.66ZM417,266a11.59,11.59,0,0,0-.13-14.42,9.49,9.49,0,0,0-7.48-3.25H391.88v17.88a3.21,3.21,0,0,0,.66,2.07,2.74,2.74,0,0,0,2.25,1h14.9A9,9,0,0,0,417,266Z" transform="translate(-299.18 -221.16)"/><path class="cls-1" d="M454.91,222.33a13,13,0,0,1,10.26,4.35,14.2,14.2,0,0,1,3.44,9.59,13.34,13.34,0,0,1-2.11,7.46,11.49,11.49,0,0,1-5.7,4.49,6.1,6.1,0,0,1,4,2,7.41,7.41,0,0,1,2.06,5.45,80.79,80.79,0,0,0,.46,9.32,31.15,31.15,0,0,0,1.32,6.07,2.56,2.56,0,0,1,0,2,2.32,2.32,0,0,1-1.25,1.11,2.41,2.41,0,0,1-1.59,0,2,2,0,0,1-1.19-1.24,33.87,33.87,0,0,1-1.53-7.39c-.26-2.71-.39-5.8-.39-9.25a5.25,5.25,0,0,0-2.39-4.55,8.84,8.84,0,0,0-5.36-1.59H437.76V272a2.27,2.27,0,0,1-.66,1.73,1.89,1.89,0,0,1-1.39.62,2,2,0,0,1-1.46-.62,2.39,2.39,0,0,1-.59-1.73V229a7.05,7.05,0,0,1,1.52-4.63,5.87,5.87,0,0,1,4.77-2.07Zm7,20.78a10.66,10.66,0,0,0,0-13.74,9.6,9.6,0,0,0-7.48-3.17H440.67a2.76,2.76,0,0,0-2.25,1,3.33,3.33,0,0,0-.66,2.14v17h16.69A9.49,9.49,0,0,0,461.93,243.11Z" transform="translate(-299.18 -221.16)"/><path class="cls-1" d="M515.56,229.3q5.3,7.24,5.3,18.43t-5.3,18.36q-6,8.22-16.82,8.22t-16.88-8.22q-5.16-7.17-5.16-18.36t5.16-18.43q6-8.15,16.88-8.14T515.56,229.3ZM485,231.79q-4.17,6-4.17,15.94t4.17,16q4.71,6.82,13.77,6.83t13.77-6.83q4.25-6.15,4.24-16t-4.24-15.94Q507.76,225,498.74,225T485,231.79Z" transform="translate(-299.18 -221.16)"/></svg>